<svg xmlns="http://www.w3.org/2000/svg" xmlns:xlink="http://www.w3.org/1999/xlink" version="1.1" width="1000" height="1000" viewBox="0 0 1000 1000" xml:space="preserve">
<desc>Created with Fabric.js 3.5.0</desc>
<defs>
</defs>
<rect x="0" y="0" width="100%" height="100%" fill="#ffffff"/>
<g transform="matrix(1.0792 0 0 1.0792 499.9935 499.9932)" id="932910">
<g style="" vector-effect="non-scaling-stroke">
		<g transform="matrix(0.1333 0 0 -0.1333 -0.1583 -0.1663)">
<path style="stroke: none; stroke-width: 1; stroke-dasharray: none; stroke-linecap: butt; stroke-dashoffset: 0; stroke-linejoin: miter; stroke-miterlimit: 4; is-custom-font: none; font-file-url: none; fill: rgb(0,0,0); fill-rule: nonzero; opacity: 1;" transform=" translate(-4750, -4990)" d="M 0 4990 l 0 -4990 l 4750 0 l 4750 0 l 0 4990 l 0 4990 l -4750 0 l -4750 0 l 0 -4990 z m 7260 2025 l 0 -395 l -1525 0 l -1525 0 l -4 -22 c -3 -13 -16 -111 -30 -218 c -14 -107 -38 -287 -55 -400 c -16 -113 -31 -220 -34 -237 l -4 -33 l 594 0 l 593 0 l 4 23 c 3 12 11 60 18 107 l 13 85 l 353 3 c 401 3 360 14 342 -94 c -6 -32 -13 -74 -16 -91 l -5 -33 l 206 0 l 205 0 l 0 -400 l 0 -400 l -259 0 l -259 0 l -6 -27 c -6 -32 -20 -130 -71 -498 c -20 -143 -47 -338 -60 -434 c -30 -209 -31 -251 -6 -299 c 36 -69 117 -92 260 -72 c 46 6 85 9 87 7 c 5 -4 -51 -429 -61 -474 c -6 -28 -11 -29 -185 -49 c -353 -40 -608 11 -735 147 c -113 122 -138 290 -91 604 c 17 114 85 591 121 860 c 14 99 28 192 31 208 l 6 27 l -596 0 l -596 0 l -5 -22 c -2 -13 -12 -77 -20 -143 c -19 -142 -82 -597 -124 -885 c -35 -239 -66 -460 -81 -580 c -6 -47 -13 -97 -16 -112 l -6 -28 l -499 0 c -355 0 -499 3 -499 11 c 0 16 109 784 394 2789 c 114 795 206 1453 206 1465 c 0 3 887 5 1970 5 l 1970 0 l 0 -395 z m -3940 -4295 l 0 -40 l -280 0 l -280 0 l 0 40 l 0 40 l 280 0 l 280 0 l 0 -40 z m 750 0 l 0 -40 l -275 0 l -275 0 l 0 40 l 0 40 l 275 0 l 275 0 l 0 -40 z m 800 0 l 0 -40 l -300 0 l -300 0 l 4 38 c 3 20 5 38 5 40 c 1 1 134 2 296 2 l 295 0 l 0 -40 z m 283 28 c -2 -5 -3 -87 -3 -183 l 0 -175 l -40 0 l -40 0 l 0 186 l 0 185 l 43 -3 c 23 -2 41 -6 40 -10 z m 757 -173 l 0 -185 l -40 0 l -40 0 l 0 185 l 0 185 l 40 0 l 40 0 l 0 -185 z m 1149 -44 c 78 -126 141 -232 141 -235 c 0 -3 -19 -6 -43 -6 c -41 0 -44 2 -72 50 l -30 50 l -217 0 c -120 0 -218 3 -218 6 c 0 6 63 111 157 262 c 64 100 65 102 103 102 l 38 0 l 141 -229 z m -4219 64 l 0 -65 l 203 -2 l 202 -3 l 0 -40 l 0 -40 l -202 -3 l -203 -2 l 0 -75 l 0 -75 l -40 0 l -40 0 l 0 178 c 0 98 3 182 7 185 c 3 4 21 7 40 7 l 33 0 l 0 -65 z m 760 15 l 0 -50 l 200 0 l 200 0 l 0 -40 l 0 -40 l -200 0 l -200 0 l 0 -45 l 0 -45 l -40 0 l -40 0 l 0 135 l 0 135 l 40 0 l 40 0 l 0 -50 z m 1010 -135 l 0 -185 l -40 0 l -40 0 l 0 178 c 0 98 3 182 7 185 c 3 4 21 7 40 7 l 33 0 l 0 -185 z m -540 -145 l 0 -40 l -275 0 l -275 0 l 0 40 l 0 40 l 275 0 l 275 0 l 0 -40 z m 1560 0 l 0 -40 l -280 0 l -280 0 l 0 40 l 0 40 l 280 0 l 280 0 l 0 -40 z m 750 0 l 0 -40 l -275 0 l -275 0 l 0 40 l 0 40 l 275 0 l 275 0 l 0 -40 z m 289 0 c -22 -38 -25 -40 -72 -40 c -38 0 -47 3 -40 13 c 5 6 17 24 26 40 c 15 23 24 27 63 27 l 45 0 l -22 -40 z" stroke-linecap="round"/>
</g>
		<g transform="matrix(0.1333 0 0 -0.1333 284.1883 323.2218)">
<path style="stroke: none; stroke-width: 1; stroke-dasharray: none; stroke-linecap: butt; stroke-dashoffset: 0; stroke-linejoin: miter; stroke-miterlimit: 4; is-custom-font: none; font-file-url: none; fill: rgb(0,0,0); fill-rule: nonzero; opacity: 1;" transform=" translate(-6881.4418, -2565.8127)" d="M 6817 2573 c -32 -53 -56 -97 -54 -100 c 2 -2 57 -2 121 -1 l 116 3 l -54 88 c -29 49 -58 92 -62 97 c -5 4 -35 -35 -67 -87 z" stroke-linecap="round"/>
</g>
</g>
</g>
</svg>